<?xml version="1.0" encoding="UTF-8"?>
<svg id="Warstwa_1" data-name="Warstwa 1" xmlns="http://www.w3.org/2000/svg" viewBox="0 0 842.67 440">
  <defs>
    <style>
      .cls-1 {
        letter-spacing: 0em;
      }

      .cls-2 {
        letter-spacing: .02em;
      }

      .cls-3 {
        letter-spacing: 0em;
      }

      .cls-4 {
        letter-spacing: 0em;
      }

      .cls-5 {
        letter-spacing: 0em;
      }

      .cls-6 {
        letter-spacing: .02em;
      }

      .cls-7 {
        letter-spacing: 0em;
      }

      .cls-8 {
        letter-spacing: 0em;
      }

      .cls-9 {
        font-family: MyriadPro-Regular, 'Myriad Pro';
        font-size: 72px;
      }

      .cls-9, .cls-10 {
        fill: #1d1d1b;
      }

      .cls-11 {
        letter-spacing: -.01em;
      }

      .cls-12 {
        letter-spacing: 0em;
      }
    </style>
  </defs>
  <text class="cls-9" transform="translate(18.06 178.69) rotate(9.04)"><tspan class="cls-5" x="0" y="0">K</tspan><tspan class="cls-7" x="38.59" y="0">urs</tspan></text>
  <text class="cls-9" transform="translate(526.11 186.91) rotate(3.91)"><tspan class="cls-11" x="0" y="0">C</tspan><tspan class="cls-8" x="40.97" y="0">e</tspan><tspan class="cls-2" x="77.04" y="0">r</tspan><tspan class="cls-12" x="102.31" y="0">t</tspan><tspan x="126.79" y="0">yfi</tspan><tspan class="cls-6" x="198.36" y="0">k</tspan><tspan class="cls-4" x="233.42" y="0">a</tspan><tspan class="cls-3" x="267.83" y="0">t</tspan></text>
  <text class="cls-9" transform="translate(234.98 265.52) rotate(-.42)"><tspan class="cls-1" x="0" y="0">E</tspan><tspan x="34.99" y="0">gzamin</tspan></text>
  <path class="cls-10" d="m500.36,244.29c17.89,2.8,35.97,4.29,54.07,4.37s36.2-1.24,54.11-3.87c10.11-1.49,20.15-3.42,30.09-5.77,3.13-.74,1.8-5.56-1.33-4.82-17.26,4.08-34.81,6.87-52.5,8.3s-35.59,1.54-53.34.31c-9.97-.69-19.91-1.8-29.78-3.35-1.33-.21-2.69.34-3.08,1.75-.33,1.19.4,2.87,1.75,3.08h0Z"/>
  <path class="cls-10" d="m620.74,231.77l12.76-.36,6.38-.18,3.19-.09,1.72-.05c.42-.01,1.1.11,1.47-.04.5.07.51-.02.03-.26-.29-.11-.44-.32-.46-.62-.05.04-.02.82-.03.98-.09,1.14-.24,2.28-.35,3.42-.22,2.12-.44,4.23-.66,6.35-.44,4.23-.88,8.46-1.31,12.7-.14,1.34,1.25,2.5,2.5,2.5,1.47,0,2.36-1.15,2.5-2.5.49-4.72.98-9.44,1.47-14.16.25-2.44.51-4.88.76-7.33.21-2.02.21-4.24-1.73-5.46-1.82-1.14-4.6-.55-6.63-.5l-7.36.21-14.23.41c-3.21.09-3.22,5.09,0,5h0Z"/>
  <path class="cls-10" d="m199.55,246.06h14.41c2.48,0,4.97-.01,7.45-.01,2.1,0,4.61.36,6.64-.26,2.38-.73,3.22-2.94,3.16-5.24s-.35-4.59-.71-6.85c-.7-4.48-1.96-8.85-3.71-13.03-.52-1.24-1.65-2.14-3.08-1.75-1.17.32-2.27,1.82-1.75,3.08,1.54,3.68,2.71,7.51,3.44,11.44.35,1.89.59,3.8.72,5.73.01.21.1,2.21.07,2.21,3.77.36.34-.49.36-.35,0-.02-1.33.02-1.43.02l-25.59.02c-3.22,0-3.22,5,0,5h0Z"/>
  <path class="cls-10" d="m217.07,230.58c-15.14-9.86-29.95-20.22-44.38-31.09-4.09-3.08-8.15-6.2-12.18-9.36-1.06-.83-2.5-1.04-3.54,0-.87.87-1.07,2.7,0,3.54,14.45,11.33,29.26,22.19,44.45,32.5,4.34,2.95,8.72,5.86,13.12,8.73,2.7,1.76,5.21-2.57,2.52-4.32h0Z"/>
</svg>