<?xml version="1.0" encoding="utf-8"?>
<!-- Generator: Adobe Illustrator 26.1.0, SVG Export Plug-In . SVG Version: 6.00 Build 0)  -->
<svg version="1.1" id="Warstwa_1" xmlns="http://www.w3.org/2000/svg" xmlns:xlink="http://www.w3.org/1999/xlink" x="0px" y="0px"
	 viewBox="0 0 145 160" style="enable-background:new 0 0 145 160;" xml:space="preserve">
<style type="text/css">
	.st0{fill:#6A1415;}
	.st1{fill:#9D1915;}
	.st2{fill:#D01317;}
</style>
<g>
	<path class="st0" d="M10.37,5.5H34.1c1.66,0,3,1.34,3,3v144c0,1.66-1.34,3-3,3H10.37c-1.66,0-3-1.34-3-3V8.5
		C7.37,6.84,8.71,5.5,10.37,5.5z"/>
	<path class="st1" d="M58,25.5h23.74c1.66,0,3,1.34,3,3v104c0,1.66-1.34,3-3,3H58c-1.66,0-3-1.34-3-3v-104
		C55,26.84,56.34,25.5,58,25.5z"/>
	<path class="st2" d="M105.63,45.5h23.74c1.66,0,3,1.34,3,3v64c0,1.66-1.34,3-3,3h-23.74c-1.66,0-3-1.34-3-3v-64
		C102.63,46.84,103.98,45.5,105.63,45.5z"/>
</g>
</svg>
